<svg width="20" height="20" viewBox="0 0 20 20" fill="none" xmlns="http://www.w3.org/2000/svg">
<path d="M10.725 12.5584L8.60831 10.4667L8.63331 10.4417C10.0455 8.87292 11.1004 7.01628 11.725 5.00002H14.1666V3.33335H8.33331V1.66669H6.66665V3.33335H0.833313V5.00002H10.1416C9.58331 6.60002 8.69998 8.12502 7.49998 9.45835C6.72498 8.60002 6.08331 7.65835 5.57498 6.66669H3.90831C4.51665 8.02502 5.34998 9.30835 6.39165 10.4667L2.14998 14.65L3.33331 15.8334L7.49998 11.6667L10.0916 14.2584L10.725 12.5584ZM15.4166 8.33335H13.75L9.99998 18.3334H11.6666L12.6 15.8334H16.5583L17.5 18.3334H19.1666L15.4166 8.33335ZM13.2333 14.1667L14.5833 10.5584L15.9333 14.1667H13.2333Z" fill="black"/>
</svg>
