<svg width="117" height="34" viewBox="0 0 117 34" fill="none" xmlns="http://www.w3.org/2000/svg">
<rect y="2" width="32" height="32" rx="16" fill="black"/>
<path d="M51.5586 24.4102C50.4883 24.3398 49.4102 24.2852 48.3242 24.2461C47.2383 24.207 46.1484 24.1875 45.0547 24.1875C44.125 24.1875 43.1953 24.2031 42.2656 24.2344C41.3359 24.2656 40.3945 24.3242 39.4414 24.4102C39.5039 23.0039 39.5508 21.6094 39.582 20.2266C39.6133 18.8359 39.6289 17.4375 39.6289 16.0312C39.6289 14.4609 39.6133 12.8984 39.582 11.3438C39.5508 9.78125 39.5039 8.23828 39.4414 6.71484H44.6211C44.5898 8.56641 44.5586 10.3672 44.5273 12.1172C44.5117 12.8672 44.5 13.6406 44.4922 14.4375C44.4844 15.2344 44.4727 16.0195 44.457 16.793C44.4492 17.5664 44.4414 18.3086 44.4336 19.0195C44.4336 19.7227 44.4336 20.3594 44.4336 20.9297L51.5586 20.7305V24.4102ZM57.1836 11.7656C57.0117 13.5078 56.8945 15.2266 56.832 16.9219C56.7773 18.6172 56.75 20.3125 56.75 22.0078C56.75 22.3047 56.75 22.6055 56.75 22.9102C56.75 23.207 56.7578 23.5078 56.7734 23.8125H53.1523C53.1523 23.3281 53.1562 22.8477 53.1641 22.3711C53.1719 21.8945 53.1758 21.4219 53.1758 20.9531C53.1758 19.3984 53.1367 17.8594 53.0586 16.3359C52.9883 14.8125 52.875 13.2891 52.7188 11.7656H57.1836ZM57.1836 7.96875C57.1836 8.24219 57.1172 8.5 56.9844 8.74219C56.8516 8.97656 56.668 9.18359 56.4336 9.36328C56.1992 9.53516 55.9258 9.67578 55.6133 9.78516C55.3008 9.88672 54.9688 9.9375 54.6172 9.9375C54.2656 9.9375 53.9375 9.88672 53.6328 9.78516C53.3281 9.67578 53.0625 9.53516 52.8359 9.36328C52.6094 9.18359 52.4297 8.97656 52.2969 8.74219C52.1641 8.5 52.0977 8.24219 52.0977 7.96875C52.0977 7.70312 52.1641 7.45312 52.2969 7.21875C52.4297 6.97656 52.6094 6.76953 52.8359 6.59766C53.0625 6.41797 53.3281 6.27734 53.6328 6.17578C53.9375 6.07422 54.2656 6.02344 54.6172 6.02344C54.9688 6.02344 55.3008 6.07422 55.6133 6.17578C55.9258 6.27734 56.1992 6.41797 56.4336 6.59766C56.668 6.76953 56.8516 6.97656 56.9844 7.21875C57.1172 7.45312 57.1836 7.70312 57.1836 7.96875ZM72.0547 17.8828C72.0547 18.9219 72 19.9805 71.8906 21.0586C71.7812 22.1367 71.5938 23.2148 71.3281 24.293H67.25C67.3516 23.1289 67.4297 21.9805 67.4844 20.8477C67.5391 19.707 67.5664 18.5586 67.5664 17.4023C67.5664 17.0117 67.5664 16.625 67.5664 16.2422C67.5664 15.8516 67.5586 15.4609 67.543 15.0703C67.1914 15.0312 66.8438 15.0078 66.5 15C66.1562 14.9844 65.8086 14.9766 65.457 14.9766C64.793 14.9766 64.1094 15 63.4062 15.0469C63.3828 15.6875 63.3633 16.2812 63.3477 16.8281C63.3398 17.375 63.3359 17.918 63.3359 18.457C63.3359 18.8555 63.3398 19.2617 63.3477 19.6758C63.3555 20.082 63.3672 20.5195 63.3828 20.9883C63.4062 21.457 63.4336 21.9648 63.4648 22.5117C63.4961 23.0508 63.5352 23.6445 63.582 24.293H59.6445C59.6445 23.3555 59.6406 22.5273 59.6328 21.8086C59.625 21.0898 59.6133 20.4297 59.5977 19.8281C59.582 19.2188 59.5586 18.6406 59.5273 18.0938C59.5039 17.5391 59.4727 16.9609 59.4336 16.3594C59.3945 15.75 59.3516 15.0898 59.3047 14.3789C59.2578 13.6602 59.2031 12.8359 59.1406 11.9062L63.582 11.6367L63.4883 13.3008C63.9336 12.9883 64.3906 12.7461 64.8594 12.5742C65.3281 12.4023 65.7578 12.2734 66.1484 12.1875C66.6016 12.0938 67.043 12.0391 67.4727 12.0234C68.043 12.0234 68.5508 12.1016 68.9961 12.2578C69.4492 12.4141 69.8438 12.6328 70.1797 12.9141C70.5234 13.1875 70.8125 13.5117 71.0469 13.8867C71.2812 14.2617 71.4727 14.668 71.6211 15.1055C71.7773 15.5352 71.8867 15.9883 71.9492 16.4648C72.0195 16.9414 72.0547 17.4141 72.0547 17.8828ZM87.0547 11.543C86.9375 13.9414 86.8438 15.9961 86.7734 17.707C86.7109 19.418 86.6641 20.8203 86.6328 21.9141C86.5938 23.2031 86.5664 24.2656 86.5508 25.1016C86.5117 26.0938 86.293 26.9492 85.8945 27.668C85.5039 28.3867 84.9922 28.9844 84.3594 29.4609C83.7344 29.9375 83.0195 30.3008 82.2148 30.5508C81.418 30.8008 80.5898 30.9531 79.7305 31.0078C78.8633 31.0078 78.0703 30.9023 77.3516 30.6914C76.6406 30.4805 76.0195 30.1836 75.4883 29.8008C74.9648 29.418 74.5352 28.9648 74.1992 28.4414C73.8711 27.918 73.6602 27.3398 73.5664 26.707L78.3242 26.3789C78.2461 26.582 78.1953 26.7891 78.1719 27C78.1562 27.2109 78.1484 27.4258 78.1484 27.6445C78.1484 27.8398 78.1562 28.0391 78.1719 28.2422C78.1953 28.4453 78.2461 28.6484 78.3242 28.8516C78.4336 28.8672 78.543 28.875 78.6523 28.875C78.7617 28.875 78.875 28.875 78.9922 28.875C80.1094 28.875 81.2148 28.7539 82.3086 28.5117C82.3789 27.6367 82.4375 26.7656 82.4844 25.8984C82.5312 25.0391 82.5742 24.1758 82.6133 23.3086C82.2383 23.543 81.8555 23.7227 81.4648 23.8477C81.0742 23.9648 80.7148 24.0547 80.3867 24.1172C80.0039 24.1875 79.6289 24.2266 79.2617 24.2344C78.8242 24.2344 78.3828 24.1719 77.9375 24.0469C77.4922 23.9297 77.0625 23.7539 76.6484 23.5195C76.2344 23.2852 75.8438 22.9961 75.4766 22.6523C75.1094 22.3086 74.7891 21.9102 74.5156 21.457C74.2422 21.0039 74.0273 20.5039 73.8711 19.957C73.7148 19.4023 73.6367 18.7969 73.6367 18.1406C73.6367 17.1641 73.7656 16.2734 74.0234 15.4688C74.2891 14.6562 74.668 13.9609 75.1602 13.3828C75.6523 12.7969 76.2539 12.3438 76.9648 12.0234C77.6758 11.7031 78.4805 11.543 79.3789 11.543C79.7461 11.5508 80.1211 11.5898 80.5039 11.6602C80.832 11.7227 81.1914 11.8203 81.582 11.9531C81.9727 12.0781 82.3477 12.2617 82.707 12.5039C82.707 12.3008 82.7031 12.0938 82.6953 11.8828C82.6875 11.6719 82.6836 11.4648 82.6836 11.2617L87.0547 11.543ZM82.7656 16.8281C82.7656 16.4609 82.7617 16.0977 82.7539 15.7383C82.7539 15.3711 82.7461 15.0039 82.7305 14.6367C82.5898 14.6211 82.4492 14.6133 82.3086 14.6133C82.168 14.6133 82.0312 14.6133 81.8984 14.6133C81.6016 14.6133 81.3086 14.6172 81.0195 14.625C80.7305 14.6328 80.4336 14.6484 80.1289 14.6719C79.8242 14.6875 79.5039 14.7109 79.168 14.7422C78.832 14.7656 78.4688 14.7969 78.0781 14.8359C78.0547 15.1953 78.0352 15.5469 78.0195 15.8906C78.0117 16.2266 78.0078 16.5703 78.0078 16.9219C78.0078 17.6328 78.0352 18.3359 78.0898 19.0312C78.1445 19.7188 78.2227 20.4141 78.3242 21.1172C78.6992 21.1406 79.043 21.1602 79.3555 21.1758C79.668 21.1836 79.9727 21.1875 80.2695 21.1875C80.6992 21.1875 81.1055 21.1797 81.4883 21.1641C81.8711 21.1484 82.2773 21.1172 82.707 21.0703C82.7227 20.3594 82.7344 19.6523 82.7422 18.9492C82.7578 18.2461 82.7656 17.5391 82.7656 16.8281ZM101.551 16.5586C101.551 17.2305 101.516 17.8906 101.445 18.5391C101.383 19.1797 101.266 19.793 101.094 20.3789C100.93 20.957 100.699 21.5 100.402 22.0078C100.113 22.5078 99.7461 22.9492 99.3008 23.332C98.8555 23.7148 98.3203 24.0273 97.6953 24.2695C97.0703 24.5195 96.3398 24.6758 95.5039 24.7383C93.3555 24.7383 91.7422 24.1953 90.6641 23.1094C89.5859 22.0234 89.0469 20.418 89.0469 18.293C89.0469 18.2383 89.0469 18.0938 89.0469 17.8594C89.0469 17.6172 89.0508 17.3203 89.0586 16.9688C89.0664 16.6094 89.0742 16.2109 89.082 15.7734C89.0977 15.3281 89.1211 14.875 89.1523 14.4141C89.1836 13.9531 89.2188 13.5 89.2578 13.0547C89.3047 12.6094 89.3633 12.2031 89.4336 11.8359H93.5352C93.3867 12.6094 93.2773 13.4258 93.207 14.2852C93.1367 15.1445 93.1016 16.0234 93.1016 16.9219C93.1016 17.75 93.1328 18.5742 93.1953 19.3945C93.2656 20.207 93.3789 20.9805 93.5352 21.7148C93.8242 21.7539 94.1055 21.7852 94.3789 21.8086C94.6602 21.832 94.9375 21.8438 95.2109 21.8438C95.4766 21.8438 95.75 21.832 96.0312 21.8086C96.3203 21.7852 96.6016 21.7539 96.875 21.7148C96.9609 20.9805 97.0234 20.2109 97.0625 19.4062C97.1094 18.5938 97.1328 17.7734 97.1328 16.9453C97.1328 16.0391 97.1094 15.1562 97.0625 14.2969C97.0234 13.4297 96.9609 12.6094 96.875 11.8359H101.117C101.289 12.75 101.402 13.6133 101.457 14.4258C101.52 15.2383 101.551 15.9492 101.551 16.5586ZM111.98 21.5742C112.027 20.9102 112.059 20.2656 112.074 19.6406C112.098 19.0156 112.109 18.3984 112.109 17.7891C112.109 17.1562 112.098 16.5352 112.074 15.9258C112.059 15.3086 112.027 14.6719 111.98 14.0156C111.715 13.9766 111.449 13.9531 111.184 13.9453C110.926 13.9297 110.664 13.9219 110.398 13.9219C109.305 13.9219 108.25 14.043 107.234 14.2852C107.211 14.707 107.188 15.125 107.164 15.5391C107.148 15.9531 107.141 16.3672 107.141 16.7812C107.141 17.6094 107.172 18.4375 107.234 19.2656C107.305 20.0859 107.406 20.9453 107.539 21.8438C107.719 21.8594 107.898 21.8672 108.078 21.8672C108.266 21.8672 108.457 21.8672 108.652 21.8672C109.191 21.8672 109.738 21.8438 110.293 21.7969C110.855 21.75 111.418 21.6758 111.98 21.5742ZM116.328 17.8828C116.328 18.8125 116.145 19.6875 115.777 20.5078C115.418 21.3203 114.926 22.0312 114.301 22.6406C113.676 23.25 112.941 23.7305 112.098 24.082C111.262 24.4414 110.367 24.6211 109.414 24.6211C108.469 24.6211 107.598 24.4414 106.801 24.082C106.012 23.7305 105.328 23.25 104.75 22.6406C104.18 22.0312 103.734 21.3203 103.414 20.5078C103.094 19.6875 102.934 18.8125 102.934 17.8828C102.934 16.7344 103.094 15.7383 103.414 14.8945C103.734 14.0508 104.18 13.3516 104.75 12.7969C105.328 12.2422 106.012 11.832 106.801 11.5664C107.598 11.293 108.469 11.1562 109.414 11.1562C110.367 11.1562 111.262 11.3086 112.098 11.6133C112.941 11.918 113.676 12.3594 114.301 12.9375C114.926 13.5156 115.418 14.2227 115.777 15.0586C116.145 15.8867 116.328 16.8281 116.328 17.8828Z" fill="black"/>
</svg>
