<svg width="20" height="26" viewBox="0 0 20 26" fill="none" xmlns="http://www.w3.org/2000/svg">
<path d="M14.4082 0.928177C14.2754 0.785716 14.1153 0.671452 13.9375 0.592201C13.7596 0.51295 13.5676 0.470336 13.3729 0.4669C13.1782 0.463465 12.9848 0.49928 12.8043 0.572207C12.6237 0.645134 12.4597 0.75368 12.322 0.89137C12.1843 1.02906 12.0758 1.19307 12.0029 1.37362C11.9299 1.55417 11.8941 1.74756 11.8976 1.94225C11.901 2.13695 11.9436 2.32895 12.0229 2.50682C12.1021 2.68468 12.2164 2.84476 12.3588 2.97751L14.7175 5.33618H1.7835C1.39893 5.33618 1.03012 5.48894 0.758191 5.76087C0.486263 6.0328 0.333496 6.40161 0.333496 6.78618C0.333496 7.17074 0.486263 7.53955 0.758191 7.81148C1.03012 8.08341 1.39893 8.23618 1.7835 8.23618H14.7175L12.3588 10.5948C12.1027 10.8697 11.9633 11.2333 11.9699 11.6089C11.9765 11.9846 12.1287 12.343 12.3944 12.6086C12.66 12.8743 13.0184 13.0265 13.3941 13.0331C13.7697 13.0397 14.1333 12.9003 14.4082 12.6442L19.2415 7.81084C19.513 7.53897 19.6656 7.17043 19.6656 6.78618C19.6656 6.40193 19.513 6.03339 19.2415 5.76151L14.4082 0.928177ZM7.6415 15.5442C7.89762 15.2693 8.03706 14.9057 8.03043 14.5301C8.02381 14.1545 7.87163 13.796 7.60596 13.5304C7.3403 13.2647 6.98189 13.1125 6.60624 13.1059C6.23059 13.0993 5.86703 13.2387 5.59216 13.4948L0.758829 18.3282C0.487292 18.6001 0.334772 18.9686 0.334772 19.3528C0.334772 19.7371 0.487292 20.1056 0.758829 20.3775L5.59216 25.2108C5.86703 25.467 6.23059 25.6064 6.60624 25.5998C6.98189 25.5932 7.3403 25.441 7.60596 25.1753C7.87163 24.9096 8.02381 24.5512 8.03043 24.1756C8.03706 23.7999 7.89762 23.4364 7.6415 23.1615L5.28283 20.8028H18.2168C18.6014 20.8028 18.9702 20.6501 19.2421 20.3781C19.5141 20.1062 19.6668 19.7374 19.6668 19.3528C19.6668 18.9683 19.5141 18.5995 19.2421 18.3275C18.9702 18.0556 18.6014 17.9028 18.2168 17.9028H5.28283L7.6415 15.5442Z" fill="black"/>
</svg>
